<svg width="299" height="30" viewBox="0 0 299 30" fill="none" xmlns="http://www.w3.org/2000/svg">
<path d="M0.699997 30V0H6.7V24H36.7C36.7 25.6875 36.1062 27.1094 34.9187 28.2656C33.7312 29.4219 32.325 30 30.7 30H0.699997ZM61.9 30V12H97.9V30H91.9V18H67.9V30H61.9ZM67.9 6C66.2125 6 64.7906 5.42188 63.6344 4.26562C62.4781 3.07812 61.9 1.65625 61.9 0H97.9C97.9 1.6875 97.3062 3.10938 96.1187 4.26562C94.9312 5.42188 93.525 6 91.9 6H67.9ZM116.38 12V0H122.38V6C122.38 7.6875 121.786 9.10938 120.599 10.2656C119.411 11.4219 118.005 12 116.38 12ZM158.74 30V6H149.74C148.052 6 146.631 5.42188 145.474 4.26562C144.318 3.07812 143.74 1.65625 143.74 0H179.74C179.74 1.6875 179.146 3.10938 177.959 4.26562C176.771 5.42188 175.365 6 173.74 6H164.74V30H158.74ZM207.1 30C205.412 30 203.991 29.4219 202.834 28.2656C201.678 27.0781 201.1 25.6562 201.1 24H237.1C237.1 25.6875 236.506 27.1094 235.319 28.2656C234.131 29.4219 232.725 30 231.1 30H207.1ZM207.1 18C205.412 18 203.991 17.4219 202.834 16.2656C201.678 15.0781 201.1 13.6562 201.1 12H237.1C237.1 13.6875 236.506 15.1094 235.319 16.2656C234.131 17.4219 232.725 18 231.1 18H207.1ZM207.1 6C205.412 6 203.991 5.42188 202.834 4.26562C201.678 3.07812 201.1 1.65625 201.1 0H237.1C237.1 1.6875 236.506 3.10938 235.319 4.26562C234.131 5.42188 232.725 6 231.1 6H207.1ZM262.3 30C262.3 28.3438 262.878 26.9375 264.034 25.7812C265.222 24.5938 266.644 24 268.3 24H292.3V18H262.3V0H298.3C298.3 1.6875 297.706 3.10938 296.519 4.26562C295.331 5.42188 293.925 6 292.3 6H268.3V12H298.3V30H262.3Z" fill="black"/>
</svg>
